<svg id="google" xmlns="http://www.w3.org/2000/svg" width="24" height="24" viewBox="0 0 24 24">
  <path id="Path_1142" data-name="Path 1142" d="M5.32,146.292l-.836,3.12-3.054.065a12.024,12.024,0,0,1-.088-11.209h0l2.719.5,1.191,2.7a7.164,7.164,0,0,0,.067,4.823Z" transform="translate(0 -131.788)" fill="#fbbb00"/>
  <path id="Path_1143" data-name="Path 1143" d="M273.158,208.176a12,12,0,0,1-4.279,11.6h0l-3.425-.175-.485-3.026a7.154,7.154,0,0,0,3.078-3.653h-6.418v-4.749h11.53Z" transform="translate(-249.367 -198.422)" fill="#518ef8"/>
  <path id="Path_1144" data-name="Path 1144" d="M48.6,316.265h0a12.007,12.007,0,0,1-18.087-3.672l3.89-3.184a7.139,7.139,0,0,0,10.287,3.655Z" transform="translate(-29.078 -294.908)" fill="#28b446"/>
  <path id="Path_1145" data-name="Path 1145" d="M46.947,2.763,43.058,5.947A7.138,7.138,0,0,0,32.535,9.684l-3.91-3.2h0a12.006,12.006,0,0,1,18.323-3.72Z" transform="translate(-27.282)" fill="#f14336"/>
</svg>
