<svg id="icon" xmlns="http://www.w3.org/2000/svg" width="119.266" height="119.318" viewBox="0 0 119.266 119.318">
  <path id="Path_199" data-name="Path 199" d="M2.329,117.6c1.553,1.514,5.008,2.271,5.008,2.271H111.812a7.056,7.056,0,0,0,5.183-2.329,7.206,7.206,0,0,0,2.271-5.125,7.356,7.356,0,0,0-1.048-3.611l-49.5-69.533L88.4,11.667a7.193,7.193,0,0,0,.7-5.649,7.172,7.172,0,0,0-3.436-4.484,7.153,7.153,0,0,0-5.649-.7,7.236,7.236,0,0,0-4.542,3.378L59.633,26.575,43.676,4.329A6.92,6.92,0,0,0,39.192.894a7.379,7.379,0,0,0-5.649.757,7.129,7.129,0,0,0-3.494,4.484,6.922,6.922,0,0,0,.815,5.649L50.548,39.271l-49.5,69.416A7.331,7.331,0,0,0,0,112.531,6.937,6.937,0,0,0,2.329,117.6Z" transform="translate(0 -0.55)" fill="#212121"/>
  <path id="Path_200" data-name="Path 200" d="M525.026,621.762a2.494,2.494,0,0,1-1.8-.73,2.4,2.4,0,0,1-.752-1.8v-21.78l-5,5.533a2.671,2.671,0,0,1-2.217,1.263,2.741,2.741,0,0,1-2.217-1.263l-5.471-5.362v21.78a2.5,2.5,0,0,1-2.513,2.526,2.494,2.494,0,0,1-1.8-.73,2.4,2.4,0,0,1-.752-1.8V591.229a2.457,2.457,0,0,1,.732-1.776,2.419,2.419,0,0,1,1.8-.75,2.551,2.551,0,0,1,1.148.237,1.9,1.9,0,0,1,.614.414q.139.178.416.612l8.043,8.637,7.576-8.808q.316-.434.455-.592a2.459,2.459,0,0,1,.614-.414,2.3,2.3,0,0,1,1.108-.256,2.565,2.565,0,0,1,2.533,2.526v28.179a2.5,2.5,0,0,1-2.513,2.526Z" transform="translate(-443.974 -520.049)" fill="#fff"/>
  <path id="Path_201" data-name="Path 201" d="M285.352,613.6a10.121,10.121,0,0,1-10.133,10.1h-3.086A10.121,10.121,0,0,1,262,613.6a2.424,2.424,0,0,1,.752-1.776,2.461,2.461,0,0,1,1.8-.75,2.5,2.5,0,0,1,2.513,2.526,5.06,5.06,0,0,0,5.066,5.052h3.086a5.06,5.06,0,0,0,5.066-5.052V592.526a2.424,2.424,0,0,1,.752-1.776,2.461,2.461,0,0,1,1.8-.75,2.4,2.4,0,0,1,1.781.75,2.457,2.457,0,0,1,.732,1.776Z" transform="translate(-231.485 -521.346)" fill="#fff"/>
</svg>
