<?xml version="1.0" standalone="no"?>
<!DOCTYPE svg PUBLIC "-//W3C//DTD SVG 20010904//EN"
 "http://www.w3.org/TR/2001/REC-SVG-20010904/DTD/svg10.dtd">
<svg version="1.0" xmlns="http://www.w3.org/2000/svg"
 width="119.000000pt" height="119.000000pt" viewBox="0 0 119.000000 119.000000"
 preserveAspectRatio="xMidYMid meet">
<metadata>
Created by potrace 1.11, written by Peter Selinger 2001-2013
</metadata>
<g transform="translate(0.000000,119.000000) scale(0.100000,-0.100000)"
fill="#000000" stroke="none">
<path d="M351 1084 c-11 -15 -21 -33 -21 -40 0 -13 52 -91 136 -207 24 -34 44
-64 44 -67 0 -3 -99 -145 -220 -315 -121 -170 -220 -316 -220 -326 0 -9 9 -27
19 -40 l19 -24 479 -3 c474 -3 480 -2 506 18 51 41 59 26 -267 482 l-148 208
91 127 c50 71 91 138 91 151 0 31 -34 62 -68 62 -33 0 -46 -12 -132 -134 l-64
-90 -18 25 c-130 180 -143 194 -174 197 -25 2 -37 -3 -53 -24z"/>
</g>
</svg>
